<mxfile host="app.diagrams.net" agent="Mozilla/5.0 (Windows NT 10.0; Win64; x64) AppleWebKit/537.36 (KHTML, like Gecko) Chrome/140.0.0.0 Safari/537.36 Edg/140.0.0.0" version="28.2.5">
  <diagram name="Page-1" id="iw29GuTBBNWIZzp9MncZ">
    <mxGraphModel dx="1426" dy="745" grid="1" gridSize="10" guides="1" tooltips="1" connect="1" arrows="1" fold="1" page="1" pageScale="1" pageWidth="827" pageHeight="1169" math="0" shadow="0">
      <root>
        <mxCell id="0" />
        <mxCell id="1" parent="0" />
        <mxCell id="Um1-8LYJTlw4Rx7Kc_Mi-1" value="&lt;font style=&quot;font-size: 80px;&quot; face=&quot;Lucida Console&quot;&gt;, e_&lt;/font&gt;" style="text;html=1;align=center;verticalAlign=middle;whiteSpace=wrap;rounded=0;fontSize=90;" vertex="1" parent="1">
          <mxGeometry x="121" y="49" width="200" height="70" as="geometry" />
        </mxCell>
        <mxCell id="Um1-8LYJTlw4Rx7Kc_Mi-2" value="" style="shape=flexArrow;endArrow=classic;html=1;rounded=0;strokeWidth=4;" edge="1" parent="1">
          <mxGeometry width="50" height="50" relative="1" as="geometry">
            <mxPoint x="330" y="95" as="sourcePoint" />
            <mxPoint x="380" y="95" as="targetPoint" />
          </mxGeometry>
        </mxCell>
        <mxCell id="Um1-8LYJTlw4Rx7Kc_Mi-4" value="" style="ellipse;whiteSpace=wrap;html=1;aspect=fixed;strokeWidth=5;" vertex="1" parent="1">
          <mxGeometry x="50" y="49" width="71" height="71" as="geometry" />
        </mxCell>
        <mxCell id="Um1-8LYJTlw4Rx7Kc_Mi-7" value="&lt;font style=&quot;font-size: 80px;&quot; face=&quot;Lucida Console&quot;&gt;, e_,&lt;/font&gt;" style="text;html=1;align=center;verticalAlign=middle;whiteSpace=wrap;rounded=0;fontSize=90;" vertex="1" parent="1">
          <mxGeometry x="471" y="60" width="249" height="70" as="geometry" />
        </mxCell>
        <mxCell id="Um1-8LYJTlw4Rx7Kc_Mi-8" value="" style="ellipse;whiteSpace=wrap;html=1;aspect=fixed;strokeWidth=5;" vertex="1" parent="1">
          <mxGeometry x="400" y="60" width="71" height="71" as="geometry" />
        </mxCell>
      </root>
    </mxGraphModel>
  </diagram>
</mxfile>
